<svg width="35" height="36" viewBox="0 0 35 36" fill="none" xmlns="http://www.w3.org/2000/svg">
<g clip-path="url(#clip0_1_2069)">
<path d="M20.5535 13.007H22.0013V10.558C21.3004 10.4851 20.596 10.4492 19.8913 10.4502C17.7966 10.4502 16.3642 11.7286 16.3642 14.0697V16.0874H14V18.8289H16.3642V25.8522H19.1982V18.8289H21.5547L21.9089 16.0874H19.1982V14.3392C19.1982 13.5306 19.4138 13.007 20.5535 13.007Z" fill="#1A1B1F"/>
<path d="M34.5 17.9502C34.5 27.339 26.8888 34.9502 17.5 34.9502C8.11116 34.9502 0.5 27.339 0.5 17.9502C0.5 8.56136 8.11116 0.950195 17.5 0.950195C26.8888 0.950195 34.5 8.56136 34.5 17.9502Z" stroke="#E4EBF3"/>
</g>
<defs>
<clipPath id="clip0_1_2069">
<rect width="35" height="35" fill="white" transform="translate(0 0.450195)"/>
</clipPath>
</defs>
</svg>
