<svg width="35" height="36" viewBox="0 0 35 36" fill="none" xmlns="http://www.w3.org/2000/svg">
<g clip-path="url(#clip0_1_2075)">
<path d="M25.402 13.9524C24.8231 14.2035 24.211 14.3695 23.5846 14.4452C24.2454 14.0504 24.7407 13.4293 24.9784 12.6971C24.3574 13.0668 23.6776 13.3273 22.9685 13.4672C22.4945 12.9532 21.8634 12.6111 21.174 12.4944C20.4846 12.3778 19.7761 12.4933 19.1594 12.8228C18.5427 13.1522 18.0529 13.6771 17.7666 14.3149C17.4804 14.9528 17.414 15.6677 17.5778 16.3474C16.3221 16.2839 15.0938 15.9569 13.9727 15.3877C12.8516 14.8185 11.8628 14.0199 11.0704 13.0436C10.7925 13.5289 10.6465 14.0785 10.6469 14.6377C10.6459 15.1571 10.7733 15.6686 11.0179 16.1268C11.2624 16.585 11.6165 16.9755 12.0485 17.2638C11.5463 17.2501 11.0549 17.1154 10.6161 16.871V16.9095C10.6198 17.6372 10.8748 18.3412 11.3379 18.9025C11.801 19.4638 12.4437 19.848 13.1574 19.9899C12.8827 20.0735 12.5974 20.1176 12.3103 20.1209C12.1115 20.1185 11.9133 20.1005 11.7173 20.0669C11.9206 20.6929 12.3139 21.2399 12.8425 21.6319C13.3711 22.0239 14.0088 22.2414 14.6668 22.254C13.5557 23.1283 12.1839 23.6054 10.7701 23.6094C10.5127 23.6102 10.2555 23.5948 10 23.5632C11.4435 24.4952 13.1257 24.99 14.8439 24.9879C16.0296 25.0002 17.2059 24.7761 18.3041 24.3287C19.4022 23.8814 20.4002 23.2196 21.2398 22.3822C22.0793 21.5449 22.7436 20.5486 23.1938 19.4516C23.644 18.3546 23.8711 17.1789 23.8618 15.9931C23.8618 15.8622 23.8618 15.7236 23.8618 15.585C24.4661 15.1343 24.9873 14.5819 25.402 13.9524Z" fill="#1A1B1F"/>
<path d="M34.5 17.9502C34.5 27.339 26.8888 34.9502 17.5 34.9502C8.11116 34.9502 0.5 27.339 0.5 17.9502C0.5 8.56136 8.11116 0.950195 17.5 0.950195C26.8888 0.950195 34.5 8.56136 34.5 17.9502Z" stroke="#E4EBF3"/>
</g>
<defs>
<clipPath id="clip0_1_2075">
<rect width="35" height="35" fill="white" transform="translate(0 0.450195)"/>
</clipPath>
</defs>
</svg>
