<svg width="35" height="36" viewBox="0 0 35 36" fill="none" xmlns="http://www.w3.org/2000/svg">
<g clip-path="url(#clip0_1_2063)">
<path d="M18.701 25.312H15.6206V16.0708H18.701V17.611C19.3576 16.7756 20.3533 16.2776 21.4156 16.2533C23.3259 16.2639 24.8673 17.8184 24.8618 19.7288V25.312H21.7814V20.1138C21.6582 19.2533 20.9202 18.6149 20.051 18.6167C19.6708 18.6288 19.3119 18.7952 19.0571 19.0777C18.8024 19.3603 18.6738 19.7344 18.701 20.1138V25.312ZM14.0804 25.312H11V16.0708H14.0804V25.312ZM12.5402 14.5306C11.6896 14.5306 11 13.841 11 12.9904C11 12.1398 11.6896 11.4502 12.5402 11.4502C13.3908 11.4502 14.0804 12.1398 14.0804 12.9904C14.0804 13.3989 13.9181 13.7906 13.6293 14.0795C13.3404 14.3683 12.9487 14.5306 12.5402 14.5306Z" fill="#1A1B1F"/>
<path d="M34.5 17.9502C34.5 27.339 26.8888 34.9502 17.5 34.9502C8.11116 34.9502 0.5 27.339 0.5 17.9502C0.5 8.56136 8.11116 0.950195 17.5 0.950195C26.8888 0.950195 34.5 8.56136 34.5 17.9502Z" stroke="#E4EBF3"/>
</g>
<defs>
<clipPath id="clip0_1_2063">
<rect width="35" height="35" fill="white" transform="translate(0 0.450195)"/>
</clipPath>
</defs>
</svg>
